<svg fill="none" height="24" viewBox="0 0 27 24" width="27" xmlns="http://www.w3.org/2000/svg">
    <path clip-rule="evenodd"
          d="M17.9496 1.98455C15.4865 1.12902 12.794 1.21511 10.3906 2.22624C7.98726 3.23738 6.04301 5.10204 4.93237 7.46108C4.30706 8.78925 3.97089 10.2212 3.93068 11.6647H5.95306C6.33796 11.6647 6.57852 12.0814 6.38607 12.4147L3.65992 17.1365C3.46747 17.4699 2.98634 17.4699 2.79389 17.1365L0.0677332 12.4147C-0.124717 12.0814 0.115846 11.6647 0.500746 11.6647H2.5302C2.57074 10.0167 2.95188 8.38097 3.66573 6.86474C4.92364 4.1929 7.12568 2.081 9.84773 0.935798C12.5698 -0.209407 15.6193 -0.306916 18.4089 0.662053C21.1986 1.63102 23.5311 3.59793 24.9571 6.18395C26.3831 8.76997 26.8019 11.7922 26.1326 14.6685C25.4634 17.5448 23.7536 20.0718 21.3325 21.7627C18.9114 23.4537 15.9502 24.1889 13.0194 23.827C10.0885 23.465 7.3952 22.0313 5.45824 19.8022C5.20467 19.5103 5.23568 19.0682 5.52751 18.8146C5.81933 18.5611 6.26146 18.5921 6.51503 18.8839C8.22523 20.8521 10.6032 22.1179 13.191 22.4375C15.7787 22.7571 18.3932 22.1079 20.5309 20.6149C22.6686 19.122 24.1782 16.8908 24.7691 14.3512C25.3599 11.8117 24.9902 9.14326 23.7311 6.85999C22.4721 4.57672 20.4127 2.84008 17.9496 1.98455ZM11.6225 5.93611C12.0367 5.93611 12.3725 6.27189 12.3725 6.68611V14.094H18.2794C18.6936 14.094 19.0294 14.4298 19.0294 14.844C19.0294 15.2582 18.6936 15.594 18.2794 15.594H11.935C11.8399 15.6377 11.734 15.6621 11.6225 15.6621C11.4766 15.6621 11.3404 15.6204 11.2253 15.5484C10.9383 15.4431 10.7336 15.1675 10.7336 14.844C10.7336 14.6819 10.785 14.5318 10.8725 14.4091V6.68611C10.8725 6.27189 11.2083 5.93611 11.6225 5.93611Z"
          fill="#FCFEFF"
          fill-rule="evenodd"/>
</svg>
