<svg fill="none" height="13" viewBox="0 0 13 13" width="13" xmlns="http://www.w3.org/2000/svg">
    <path d="M5.93166 2.2077L1.87826 9.53603C1.79469 9.69277 1.75047 9.87047 1.75 10.0515C1.74954 10.2325 1.79284 10.4104 1.8756 10.5677C1.95836 10.7249 2.07769 10.8559 2.22173 10.9477C2.36577 11.0395 2.52949 11.0889 2.6966 11.0908H10.8034C10.9705 11.0889 11.1342 11.0395 11.2783 10.9477C11.4223 10.8559 11.5416 10.7249 11.6244 10.5677C11.7072 10.4104 11.7505 10.2325 11.75 10.0515C11.7495 9.87047 11.7053 9.69277 11.6217 9.53603L7.56834 2.2077C7.48302 2.05539 7.3629 1.92945 7.21956 1.84205C7.07622 1.75465 6.9145 1.70874 6.75 1.70874C6.5855 1.70874 6.42378 1.75465 6.28044 1.84205C6.1371 1.92945 6.01698 2.05539 5.93166 2.2077Z"
          stroke="white" stroke-linecap="round" stroke-linejoin="round" stroke-width="2"/>
    <path d="M6.75 5.50366V7.99136" stroke="white" stroke-linecap="round" stroke-linejoin="round" stroke-width="2"/>
    <path d="M6.75 9.47827H6.75612" stroke="white" stroke-linecap="round" stroke-linejoin="round" stroke-width="2"/>
</svg>
