<svg width="12" height="12" viewBox="0 0 12 12" fill="none" xmlns="http://www.w3.org/2000/svg">
    <path fill-rule="evenodd" clip-rule="evenodd" d="M2.72726 3.27273V1.9091H2.18182C1.4287 1.9091 0.818182 2.51962 0.818182 3.27273V4.63637H11.1818V3.27273C11.1818 2.51962 10.5713 1.9091 9.81818 1.9091H9.77271V3.27273H8.27271V1.9091H4.22726V3.27273H2.72726ZM8.27271 1.09091H4.22726V0H2.72726V1.09091H2.18182C0.976833 1.09091 0 2.06775 0 3.27273V4.63637V5.45455V9.81819C0 11.0232 0.976833 12 2.18182 12H9.81818C11.0232 12 12 11.0232 12 9.81818V5.45455V4.63637V3.27273C12 2.06775 11.0232 1.09091 9.81818 1.09091H9.77271V0H8.27271V1.09091ZM11.1818 5.45455V9.81818C11.1818 10.5713 10.5713 11.1818 9.81818 11.1818H2.18182C1.4287 11.1818 0.818182 10.5713 0.818182 9.81819V5.45455H11.1818Z" fill="white"/>
</svg>
