<svg width="24" height="24" viewBox="0 0 24 24" fill="none" xmlns="http://www.w3.org/2000/svg">
    <path d="M6.288 0H4.008C1.38 0 0 1.38 0 3.996V6.276C0 8.892 1.38 10.272 3.996 10.272H6.276C8.892 10.272 10.272 8.892 10.272 6.276V3.996C10.284 1.38 8.904 0 6.288 0Z" fill="white"/>
    <path opacity="0.6" d="M20.004 0H17.724C15.108 0 13.728 1.38 13.728 3.996V6.276C13.728 8.892 15.108 10.272 17.724 10.272H20.004C22.62 10.272 24 8.892 24 6.276V3.996C24 1.38 22.62 0 20.004 0Z" fill="white"/>
    <path d="M20.004 13.7158H17.724C15.108 13.7158 13.728 15.0958 13.728 17.7118V19.9918C13.728 22.6078 15.108 23.9878 17.724 23.9878H20.004C22.62 23.9878 24 22.6078 24 19.9918V17.7118C24 15.0958 22.62 13.7158 20.004 13.7158Z" fill="white"/>
    <path opacity="0.6" d="M6.288 13.7158H4.008C1.38 13.7158 0 15.0958 0 17.7118V19.9918C0 22.6198 1.38 23.9998 3.996 23.9998H6.276C8.892 23.9998 10.272 22.6198 10.272 20.0038V17.7238C10.284 15.0958 8.904 13.7158 6.288 13.7158Z" fill="white"/>
</svg>
