<svg width="15" height="14" viewBox="0 0 15 14" fill="none" xmlns="http://www.w3.org/2000/svg">
    <path d="M0.454834 5.38965H1.96277H14.0262" stroke="white" stroke-width="0.5" stroke-linecap="round" stroke-linejoin="round"/>
    <path d="M4.22479 3.01389V1.69444C4.22479 1.34451 4.38366 1.0089 4.66646 0.761456C4.94925 0.514012 5.3328 0.375 5.73273 0.375H8.7486C9.14853 0.375 9.53207 0.514012 9.81487 0.761456C10.0977 1.0089 10.2565 1.34451 10.2565 1.69444V3.01389M12.5184 12.25V5.01389C12.5184 3.90932 11.623 3.01389 10.5184 3.01389H3.96289C2.85832 3.01389 1.96289 3.90932 1.96289 5.01389V12.25C1.96289 12.5999 2.12176 12.9355 2.40455 13.183C2.68735 13.4304 3.0709 13.5694 3.47083 13.5694H11.0105C11.4104 13.5694 11.794 13.4304 12.0768 13.183C12.3596 12.9355 12.5184 12.5999 12.5184 12.25Z" stroke="white" stroke-width="0.5" stroke-linecap="round" stroke-linejoin="round"/>
</svg>
