<svg fill="none" height="24" viewBox="0 0 24 24" width="24" xmlns="http://www.w3.org/2000/svg">
    <path d="M19.814 8.37209C17.5033 8.37209 15.6279 6.49674 15.6279 4.18605C15.6279 1.87535 17.5033 0 19.814 0C22.1247 0 24 1.87535 24 4.18605C24 6.49674 22.1247 8.37209 19.814 8.37209ZM19.814 1.67442C18.4298 1.67442 17.3023 2.80186 17.3023 4.18605C17.3023 5.57023 18.4298 6.69767 19.814 6.69767C21.1982 6.69767 22.3256 5.57023 22.3256 4.18605C22.3256 2.80186 21.1982 1.67442 19.814 1.67442Z"
          fill="white"/>
    <path d="M12.0001 13.954H6.41875C5.96108 13.954 5.58154 13.5744 5.58154 13.1168C5.58154 12.6591 5.96108 12.2795 6.41875 12.2795H12.0001C12.4578 12.2795 12.8374 12.6591 12.8374 13.1168C12.8374 13.5744 12.4578 13.954 12.0001 13.954Z"
          fill="white"/>
    <path d="M16.4653 18.4186H6.41875C5.96108 18.4186 5.58154 18.039 5.58154 17.5813C5.58154 17.1237 5.96108 16.7441 6.41875 16.7441H16.4653C16.9229 16.7441 17.3025 17.1237 17.3025 17.5813C17.3025 18.039 16.9229 18.4186 16.4653 18.4186Z"
          fill="white"/>
    <path d="M15.3488 24H8.65116C2.58977 24 0 21.4102 0 15.3488V8.65116C0 2.58977 2.58977 0 8.65116 0H14.2326C14.6902 0 15.0698 0.379535 15.0698 0.837209C15.0698 1.29488 14.6902 1.67442 14.2326 1.67442H8.65116C3.50512 1.67442 1.67442 3.50512 1.67442 8.65116V15.3488C1.67442 20.4949 3.50512 22.3256 8.65116 22.3256H15.3488C20.4949 22.3256 22.3256 20.4949 22.3256 15.3488V9.76744C22.3256 9.30977 22.7051 8.93023 23.1628 8.93023C23.6205 8.93023 24 9.30977 24 9.76744V15.3488C24 21.4102 21.4102 24 15.3488 24Z"
          fill="white"/>
</svg>
