<svg width="31" height="31" viewBox="0 0 31 31" fill="none" xmlns="http://www.w3.org/2000/svg">
    <path d="M14.6992 5.75H17.5679C18.0448 5.75 18.4285 6.13205 18.4285 6.60693V12.6055H21.5732C22.2115 12.6055 22.5306 13.3731 22.0788 13.823L16.6248 19.2574C16.3559 19.5252 15.9148 19.5252 15.6459 19.2574L10.1847 13.823C9.73286 13.3731 10.052 12.6055 10.6903 12.6055H13.8386V6.60693C13.8386 6.13205 14.2223 5.75 14.6992 5.75ZM25.3132 19.1753V23.1743C25.3132 23.6492 24.9296 24.0312 24.4526 24.0312H7.81445C7.33754 24.0312 6.95386 23.6492 6.95386 23.1743V19.1753C6.95386 18.7004 7.33754 18.3184 7.81445 18.3184H13.0748L14.8319 20.0679C15.5526 20.7856 16.7144 20.7856 17.4352 20.0679L19.1922 18.3184H24.4526C24.9296 18.3184 25.3132 18.7004 25.3132 19.1753ZM20.8668 22.3174C20.8668 21.9246 20.5441 21.6033 20.1497 21.6033C19.7552 21.6033 19.4325 21.9246 19.4325 22.3174C19.4325 22.7101 19.7552 23.0315 20.1497 23.0315C20.5441 23.0315 20.8668 22.7101 20.8668 22.3174ZM23.1617 22.3174C23.1617 21.9246 22.839 21.6033 22.4446 21.6033C22.0501 21.6033 21.7274 21.9246 21.7274 22.3174C21.7274 22.7101 22.0501 23.0315 22.4446 23.0315C22.839 23.0315 23.1617 22.7101 23.1617 22.3174Z" fill="white"/>
</svg>
