<svg width="15" height="14" viewBox="0 0 15 14" fill="none" xmlns="http://www.w3.org/2000/svg">
    <path d="M6.68112 3.17383H2.28298C1.9497 3.17383 1.63008 3.28967 1.39442 3.49588C1.15876 3.70208 1.02637 3.98175 1.02637 4.27337V11.9701C1.02637 12.2617 1.15876 12.5414 1.39442 12.7476C1.63008 12.9538 1.9497 13.0697 2.28298 13.0697H11.0793C11.4125 13.0697 11.7322 12.9538 11.9678 12.7476C12.2035 12.5414 12.3359 12.2617 12.3359 11.9701V8.12174" stroke="white" stroke-width="0.5" stroke-linecap="round" stroke-linejoin="round"/>
    <path d="M11.6976 0.810404C12.0162 0.53162 12.4483 0.375 12.8989 0.375C13.3495 0.375 13.7816 0.53162 14.1002 0.810404C14.4188 1.08919 14.5978 1.4673 14.5978 1.86156C14.5978 2.25582 14.4188 2.63394 14.1002 2.91272L6.82058 9.28242C6.60494 9.47111 6.34506 9.60217 6.06515 9.6634L5.70953 9.74119C4.61508 9.98061 3.66143 8.96496 3.96921 7.88774V7.88774C4.04754 7.61358 4.20336 7.36787 4.41794 7.18011L11.6976 0.810404Z" stroke="white" stroke-width="0.5" stroke-linecap="round" stroke-linejoin="round"/>
</svg>
