<svg width="11" height="12" viewBox="0 0 11 12" fill="none" xmlns="http://www.w3.org/2000/svg">
    <path d="M0.184204 3.49298V3.06174C0.184204 2.70448 0.402462 2.41487 0.671704 2.41487H6.69047C7.40498 2.41487 7.9842 1.83565 7.9842 1.12114C7.9842 0.545244 8.51028 0.257524 8.81643 0.663729L10.4414 2.81995C10.6318 3.07257 10.6318 3.48215 10.4414 3.73475L8.81643 5.89097C8.51144 6.29558 7.9842 6.01188 7.9842 5.43358C7.9842 4.71907 7.40498 4.13985 6.69047 4.13985H0.671704C0.402462 4.13985 0.184204 3.85024 0.184204 3.49298ZM10.0967 7.5898H4.07793C3.36343 7.5898 2.7842 7.01057 2.7842 6.29607C2.7842 5.7216 2.25888 5.43142 1.95198 5.83865L0.326981 7.99487C0.136612 8.2475 0.136612 8.65707 0.326981 8.90967L1.95198 11.0659C2.25724 11.4709 2.7842 11.1863 2.7842 10.6085C2.7842 9.89399 3.36343 9.31477 4.07793 9.31477H10.0967C10.3659 9.31477 10.5842 9.02516 10.5842 8.6679V8.23666C10.5842 7.8794 10.3659 7.5898 10.0967 7.5898Z" fill="white"/>
</svg>
