<svg width="13" height="8" viewBox="0 0 13 8" fill="none" xmlns="http://www.w3.org/2000/svg">
    <path d="M6.16943 1.66667C5.94863 1.67012 5.72945 1.7052 5.5186 1.77084C5.61613 1.94236 5.66806 2.13603 5.66943 2.33334C5.66943 2.48655 5.63926 2.63826 5.58063 2.7798C5.52199 2.92135 5.43606 3.04996 5.32772 3.1583C5.21939 3.26663 5.09078 3.35257 4.94923 3.4112C4.80768 3.46983 4.65597 3.50001 4.50276 3.50001C4.30545 3.49864 4.11179 3.44671 3.94026 3.34917C3.80494 3.81851 3.82071 4.31852 3.98535 4.77839C4.14998 5.23826 4.45514 5.63468 4.85759 5.91148C5.26004 6.18828 5.73938 6.33145 6.22772 6.32069C6.71605 6.30993 7.18862 6.14579 7.57849 5.85153C7.96836 5.55727 8.25576 5.14781 8.39999 4.68113C8.54421 4.21445 8.53795 3.71423 8.38208 3.25131C8.22622 2.78839 7.92865 2.38625 7.53153 2.10185C7.13442 1.81744 6.65789 1.6652 6.16943 1.66667ZM12.0969 3.69584C10.9672 1.49146 8.73048 0 6.16943 0C3.60839 0 1.37109 1.4925 0.241922 3.69605C0.194264 3.79032 0.169434 3.89448 0.169434 4.00011C0.169434 4.10575 0.194264 4.2099 0.241922 4.30417C1.37172 6.50855 3.60839 8.00002 6.16943 8.00002C8.73048 8.00002 10.9678 6.50751 12.0969 4.30397C12.1446 4.20969 12.1694 4.10554 12.1694 3.9999C12.1694 3.89427 12.1446 3.79011 12.0969 3.69584ZM6.16943 7.00001C4.11422 7.00001 2.23005 5.85418 1.21255 4.00001C2.23005 2.14584 4.11401 1 6.16943 1C8.22485 1 10.1088 2.14584 11.1263 4.00001C10.109 5.85418 8.22485 7.00001 6.16943 7.00001Z" fill="white"/>
</svg>
