<svg fill="none" height="40" viewBox="0 0 40 40" width="40" xmlns="http://www.w3.org/2000/svg">
    <path d="M25.3999 37.1166H25.1833C17.7833 37.1166 14.2166 34.2 13.5999 27.6666C13.5333 26.9833 14.0333 26.3666 14.7333 26.3C15.3999 26.2333 16.0333 26.75 16.0999 27.4333C16.5833 32.6666 19.0499 34.6166 25.1999 34.6166H25.4166C32.1999 34.6166 34.5999 32.2166 34.5999 25.4333V14.5666C34.5999 7.7833 32.1999 5.3833 25.4166 5.3833H25.1999C19.0166 5.3833 16.5499 7.36663 16.0999 12.7C16.0166 13.3833 15.4333 13.9 14.7333 13.8333C14.569 13.8205 14.4089 13.7753 14.2621 13.7005C14.1153 13.6256 13.9848 13.5225 13.8779 13.3971C13.7711 13.2717 13.6901 13.1264 13.6395 12.9696C13.5889 12.8128 13.5698 12.6475 13.5833 12.4833C14.1499 5.84997 17.7333 2.8833 25.1833 2.8833H25.3999C33.5833 2.8833 37.0833 6.3833 37.0833 14.5666V25.4333C37.0833 33.6166 33.5833 37.1166 25.3999 37.1166Z"
          fill="white"/>
    <path d="M24.9999 21.25H6.0332C5.34987 21.25 4.7832 20.6833 4.7832 20C4.7832 19.3167 5.34987 18.75 6.0332 18.75H24.9999C25.6832 18.75 26.2499 19.3167 26.2499 20C26.2499 20.6833 25.6832 21.25 24.9999 21.25Z"
          fill="white"/>
    <path d="M9.74991 26.8334C9.43325 26.8334 9.11658 26.7167 8.86658 26.4667L3.28325 20.8834C3.05078 20.6482 2.92041 20.3308 2.92041 20.0001C2.92041 19.6693 3.05078 19.352 3.28325 19.1167L8.86658 13.5334C9.34991 13.0501 10.1499 13.0501 10.6332 13.5334C11.1166 14.0167 11.1166 14.8167 10.6332 15.3001L5.93325 20.0001L10.6332 24.7001C11.1166 25.1834 11.1166 25.9834 10.6332 26.4667C10.3999 26.7167 10.0666 26.8334 9.74991 26.8334Z"
          fill="white"/>
</svg>
