<svg fill="none" height="11" viewBox="0 0 11 11" width="11" xmlns="http://www.w3.org/2000/svg">
    <path d="M7.6213 0.0690918C5.90114 0.0690918 4.50506 1.55984 4.50506 3.39664C4.50506 3.82257 4.60478 4.22188 4.7419 4.60787L1.1146 8.44121C0.628467 8.96031 0.628467 9.83879 1.1146 10.3579C1.3639 10.6241 1.68799 10.7306 2.01208 10.7306C2.33616 10.7306 2.66025 10.6108 2.90955 10.3579L6.49945 6.48461C6.84847 6.63103 7.22242 6.73751 7.63376 6.73751C9.35393 6.73751 10.75 5.24676 10.75 3.40995C10.75 3.19699 10.75 2.98403 10.7126 2.78437L9.50351 4.07546H7.01052V1.41342L8.21962 0.122333C8.03264 0.082402 7.8332 0.082402 7.63376 0.082402L7.6213 0.0690918ZM2.01208 8.72073C2.36109 8.72073 2.63532 9.01355 2.63532 9.38624C2.63532 9.75892 2.36109 10.0517 2.01208 10.0517C1.66306 10.0517 1.38883 9.75892 1.38883 9.38624C1.38883 9.01355 1.66306 8.72073 2.01208 8.72073Z"
          fill="white"/>
</svg>
