<svg fill="none" height="28" viewBox="0 0 28 28" width="28" xmlns="http://www.w3.org/2000/svg">
    <path d="M11.4572 13.0486L2.72352 21.7823C1.75883 22.7469 1.75883 24.3111 2.72352 25.2757C3.68821 26.2405 5.25229 26.2405 6.21698 25.2757L14.9506 16.5421"
          stroke="white" stroke-linecap="round" stroke-linejoin="round" stroke-width="3.06255"/>
    <path d="M20.2788 16.9927L25.0689 21.7829C26.0337 22.7475 26.0337 24.3117 25.0689 25.2763C24.1043 26.2411 22.5401 26.2411 21.5755 25.2763L13.9072 17.6081"
          stroke="white" stroke-linecap="round" stroke-linejoin="round" stroke-width="3.06255"/>
    <path d="M7.35934 7.2402L4.73924 8.11357L2.11914 3.74674L3.86587 2L8.23271 4.6201L7.35934 7.2402ZM7.35934 7.2402L10.855 10.7359"
          stroke="white" stroke-linecap="round" stroke-linejoin="round" stroke-width="3.06255"/>
    <path d="M11.4572 13.0484C10.415 10.3892 10.6188 6.89995 12.7673 4.75143C14.9158 2.60291 18.8808 2.13133 21.0643 3.44138L17.3086 7.197L16.9596 11.0395L20.802 10.6905L24.5577 6.93484C25.8678 9.11826 25.3962 13.0834 23.2477 15.2319C21.0991 17.3804 17.61 17.5842 14.9508 16.5418"
          stroke="white" stroke-linecap="round" stroke-linejoin="round" stroke-width="3.06255"/>
</svg>
