<svg fill="none" height="24" viewBox="0 0 28 24" width="28" xmlns="http://www.w3.org/2000/svg">
    <path d="M26.7122 16.568C26.826 15.8125 26.826 15.0409 26.7122 14.2853L27.8411 13.4869C27.9723 13.3958 28.0292 13.2083 27.9855 13.0315C27.6923 11.8741 27.1891 10.8238 26.5328 9.95579C26.4322 9.82183 26.2703 9.78969 26.139 9.88078L25.0101 10.6792C24.5332 10.1808 23.9863 9.79504 23.3956 9.53784V7.94106C23.3956 7.75888 23.2906 7.59812 23.1462 7.56062C22.1705 7.2927 21.1772 7.30342 20.2496 7.56062C20.1052 7.59812 20.0002 7.75888 20.0002 7.94106V9.53784C19.4095 9.79504 18.8626 10.1808 18.3857 10.6792L17.2568 9.88078C17.1299 9.78969 16.9637 9.82183 16.863 9.95579C16.2067 10.8238 15.7035 11.8741 15.4104 13.0315C15.3666 13.2083 15.4279 13.3958 15.5548 13.4869L16.6836 14.2853C16.5699 15.0409 16.5699 15.8125 16.6836 16.568L15.5548 17.3664C15.4235 17.4575 15.3666 17.645 15.4104 17.8218C15.7035 18.9792 16.2067 20.0241 16.863 20.8975C16.9637 21.0315 17.1256 21.0636 17.2568 20.9725L18.3857 20.1741C18.8626 20.6725 19.4095 21.0583 20.0002 21.3155V22.9123C20.0002 23.0944 20.1052 23.2552 20.2496 23.2927C21.2254 23.5606 22.2186 23.5499 23.1462 23.2927C23.2906 23.2552 23.3956 23.0944 23.3956 22.9123V21.3155C23.9863 21.0583 24.5332 20.6725 25.0101 20.1741L26.139 20.9725C26.2659 21.0636 26.4322 21.0315 26.5328 20.8975C27.1891 20.0295 27.6923 18.9792 27.9855 17.8218C28.0292 17.645 27.9679 17.4575 27.8411 17.3664L26.7122 16.568ZM21.7023 18.0255C20.5297 18.0255 19.5802 16.8573 19.5802 15.4267C19.5802 13.996 20.534 12.8279 21.7023 12.8279C22.8705 12.8279 23.8244 13.996 23.8244 15.4267C23.8244 16.8573 22.8749 18.0255 21.7023 18.0255ZM4.20044 10.2827C5.74498 10.2827 7.00074 8.74481 7.00074 6.85332C7.00074 4.96182 5.74498 3.42398 4.20044 3.42398C2.65591 3.42398 1.40015 4.96182 1.40015 6.85332C1.40015 8.74481 2.65591 10.2827 4.20044 10.2827ZM14.0015 11.9973C14.0846 11.9973 14.1634 11.9705 14.2465 11.9652C14.6097 10.8024 15.1435 9.70931 15.8348 8.79303C16.1586 8.36437 16.618 8.11788 17.0993 8.11788C17.4012 8.11788 17.6987 8.21433 17.9569 8.40188L18.3026 8.64836C18.3376 8.62157 18.3726 8.60013 18.4076 8.57334C18.7139 7.79103 18.8976 6.92297 18.8976 6.00134C18.8976 2.68453 16.7055 0 13.9971 0C11.2887 0 9.10096 2.67917 9.10096 5.99598C9.10096 9.31279 11.2931 11.9973 14.0015 11.9973ZM18.6045 22.4193C18.5038 22.355 18.4032 22.28 18.3069 22.2103C17.9481 22.4675 17.6375 22.7354 17.1037 22.7354C16.6268 22.7354 16.1673 22.4889 15.8392 22.0603C15.0385 20.9993 14.4259 19.708 14.0802 18.3309C13.6121 16.4823 15.1697 15.6678 15.2091 15.6356C15.2047 15.4963 15.2047 15.357 15.2091 15.2177L14.8634 14.9712C14.6972 14.8533 14.5572 14.7033 14.4346 14.5372C14.2903 14.5479 14.1502 14.5693 14.0059 14.5693C12.9295 14.5693 11.9231 14.2478 11.0087 13.712H10.6455C7.85833 13.712 5.60059 16.4769 5.60059 19.8848V21.428C5.60059 22.848 6.54132 24 7.70081 24H18.8757C18.7138 23.6785 18.6045 23.3141 18.6045 22.9123V22.4193ZM7.57392 12.994C7.06637 12.3778 6.37067 11.9973 5.60059 11.9973H2.8003C1.25576 11.9973 0 13.5352 0 15.4267V17.1413C0 18.0898 0.625691 18.856 1.40015 18.856H4.28358C4.55923 16.3161 5.81061 14.1782 7.57392 12.994Z"
          fill="white"/>
</svg>
