<svg fill="none" height="24" viewBox="0 0 19 24" width="19" xmlns="http://www.w3.org/2000/svg">
    <path d="M11.0833 6.375V0H1.1875C0.529427 0 0 0.501562 0 1.125V22.875C0 23.4984 0.529427 24 1.1875 24H17.8125C18.4706 24 19 23.4984 19 22.875V7.5H12.2708C11.6177 7.5 11.0833 6.99375 11.0833 6.375ZM14.25 17.4375C14.25 17.7469 13.9828 18 13.6562 18H5.34375C5.01719 18 4.75 17.7469 4.75 17.4375V17.0625C4.75 16.7531 5.01719 16.5 5.34375 16.5H13.6562C13.9828 16.5 14.25 16.7531 14.25 17.0625V17.4375ZM14.25 14.4375C14.25 14.7469 13.9828 15 13.6562 15H5.34375C5.01719 15 4.75 14.7469 4.75 14.4375V14.0625C4.75 13.7531 5.01719 13.5 5.34375 13.5H13.6562C13.9828 13.5 14.25 13.7531 14.25 14.0625V14.4375ZM14.25 11.0625V11.4375C14.25 11.7469 13.9828 12 13.6562 12H5.34375C5.01719 12 4.75 11.7469 4.75 11.4375V11.0625C4.75 10.7531 5.01719 10.5 5.34375 10.5H13.6562C13.9828 10.5 14.25 10.7531 14.25 11.0625ZM19 5.71406V6H12.6667V0H12.9685C13.2852 0 13.587 0.117188 13.8096 0.328125L18.6536 4.92188C18.8763 5.13281 19 5.41875 19 5.71406Z"
          fill="white"/>
</svg>
