<svg width="40" height="40" viewBox="0 0 40 40" fill="none" xmlns="http://www.w3.org/2000/svg">
<rect width="40" height="40" rx="2" fill="#1D232C"/>
<path d="M22.4223 25.4014C24.3278 25.1758 26.1999 24.7261 28 24.0617C26.4756 22.373 25.6332 20.178 25.6366 17.9031V17.1872V17.1361C25.6366 15.5087 24.9901 13.948 23.8394 12.7972C22.6886 11.6465 21.1279 11 19.5005 11C17.8731 11 16.3124 11.6465 15.1617 12.7972C14.0109 13.948 13.3644 15.5087 13.3644 17.1361V17.9031C13.3675 20.1782 12.5248 22.3732 11 24.0617C12.7723 24.7162 14.6407 25.1713 16.5787 25.4014M22.4223 25.4014C20.4812 25.6316 18.5198 25.6316 16.5787 25.4014M22.4223 25.4014C22.5697 25.8614 22.6063 26.3498 22.5293 26.8267C22.4522 27.3036 22.2636 27.7556 21.9789 28.1458C21.6941 28.536 21.3212 28.8535 20.8905 29.0724C20.4599 29.2913 19.9836 29.4053 19.5005 29.4053C19.0174 29.4053 18.5412 29.2913 18.1105 29.0724C17.6798 28.8535 17.3069 28.536 17.0222 28.1458C16.7374 27.7556 16.5488 27.3036 16.4718 26.8267C16.3947 26.3498 16.4313 25.8614 16.5787 25.4014" stroke="#586A84" stroke-width="1.5" stroke-linecap="round" stroke-linejoin="round"/>
</svg>
