<svg width="130" height="130" viewBox="0 0 130 130" fill="none" xmlns="http://www.w3.org/2000/svg">
<g clip-path="url(#clip0_6059_106917)">
<path d="M65 128.5C100.07 128.5 128.5 100.07 128.5 65C128.5 29.9299 100.07 1.5 65 1.5C29.9299 1.5 1.5 29.9299 1.5 65C1.5 100.07 29.9299 128.5 65 128.5Z" stroke="#C4C4C4" stroke-width="3"/>
<mask id="mask0_6059_106917" style="mask-type:alpha" maskUnits="userSpaceOnUse" x="5" y="5" width="117" height="117">
<path d="M63.5 122C95.8087 122 122 95.8087 122 63.5C122 31.1913 95.8087 5 63.5 5C31.1913 5 5 31.1913 5 63.5C5 95.8087 31.1913 122 63.5 122Z" fill="#141517"/>
</mask>
<g mask="url(#mask0_6059_106917)">
<path d="M63.5 80.5C55.4562 80.5 48.5703 77.6359 42.8422 71.9078C37.1141 66.1797 34.25 59.2938 34.25 51.25C34.25 43.2062 37.1141 36.3203 42.8422 30.5922C48.5703 24.8641 55.4562 22 63.5 22C71.5437 22 78.4297 24.8641 84.1578 30.5922C89.8859 36.3203 92.75 43.2062 92.75 51.25C92.75 59.2938 89.8859 66.1797 84.1578 71.9078C78.4297 77.6359 71.5437 80.5 63.5 80.5ZM5 139V118.525C5 114.381 6.06641 110.573 8.19922 107.099C10.332 103.626 13.1656 100.975 16.7 99.1469C24.2563 95.3688 31.9344 92.5352 39.7344 90.6461C47.5344 88.757 55.4562 87.8125 63.5 87.8125C71.5437 87.8125 79.4656 88.757 87.2656 90.6461C95.0656 92.5352 102.744 95.3688 110.3 99.1469C113.834 100.975 116.668 103.626 118.801 107.099C120.934 110.573 122 114.381 122 118.525V139H5ZM19.625 124.375H107.375V118.525C107.375 117.184 107.04 115.966 106.37 114.869C105.699 113.772 104.816 112.919 103.719 112.309C97.1375 109.019 90.4953 106.551 83.7922 104.905C77.0891 103.26 70.325 102.438 63.5 102.438C56.675 102.438 49.9109 103.26 43.2078 104.905C36.5047 106.551 29.8625 109.019 23.2812 112.309C22.1844 112.919 21.3008 113.772 20.6305 114.869C19.9602 115.966 19.625 117.184 19.625 118.525V124.375ZM63.5 65.875C67.5219 65.875 70.9648 64.443 73.8289 61.5789C76.693 58.7148 78.125 55.2719 78.125 51.25C78.125 47.2281 76.693 43.7852 73.8289 40.9211C70.9648 38.057 67.5219 36.625 63.5 36.625C59.4781 36.625 56.0352 38.057 53.1711 40.9211C50.307 43.7852 48.875 47.2281 48.875 51.25C48.875 55.2719 50.307 58.7148 53.1711 61.5789C56.0352 64.443 59.4781 65.875 63.5 65.875Z" fill="#C4C4C4"/>
</g>
</g>
<defs>
<clipPath id="clip0_6059_106917">
<rect width="130" height="130" fill="white"/>
</clipPath>
</defs>
</svg>
