<svg fill="none" height="25" viewBox="0 0 24 25" width="24" xmlns="http://www.w3.org/2000/svg">
    <path clip-rule="evenodd"
          d="M10.325 4.817C10.751 3.061 13.249 3.061 13.675 4.817C13.8046 5.35206 14.182 5.79302 14.6907 6.00375C15.1993 6.21447 15.7779 6.1696 16.248 5.883C17.791 4.943 19.558 6.709 18.618 8.253C18.3318 8.72285 18.2871 9.30108 18.4975 9.80938C18.708 10.3177 19.1484 10.695 19.683 10.825C21.439 11.251 21.439 13.749 19.683 14.175C19.1479 14.3046 18.707 14.682 18.4963 15.1907C18.2855 15.6993 18.3304 16.2779 18.617 16.748C19.557 18.291 17.791 20.058 16.247 19.118C15.7771 18.8318 15.1989 18.7871 14.6906 18.9975C14.1823 19.208 13.805 19.6484 13.675 20.183C13.249 21.939 10.751 21.939 10.325 20.183C10.1954 19.6479 9.81797 19.207 9.30935 18.9963C8.80073 18.7855 8.22206 18.8304 7.752 19.117C6.209 20.057 4.442 18.291 5.382 16.747C5.66819 16.2771 5.71295 15.6989 5.50247 15.1906C5.292 14.6823 4.85157 14.305 4.317 14.175C2.561 13.749 2.561 11.251 4.317 10.825C4.85206 10.6954 5.29302 10.318 5.50375 9.80935C5.71447 9.30073 5.6696 8.72206 5.383 8.252C4.443 6.709 6.209 4.942 7.753 5.882C8.753 6.49 10.049 5.952 10.325 4.817Z"
          fill-rule="evenodd"
          stroke="white" stroke-linecap="round" stroke-linejoin="round" stroke-width="1.75"/>
    <circle cx="12" cy="12.5" r="3" stroke="white" stroke-linecap="round" stroke-linejoin="round" stroke-width="1.75"/>
</svg>
