<svg width="30" height="29" viewBox="0 0 30 29" fill="none" xmlns="http://www.w3.org/2000/svg">
    <path d="M16.2295 9.52404V3.3125H6.85449C6.23105 3.3125 5.72949 3.8012 5.72949 4.40865V25.601C5.72949 26.2084 6.23105 26.6971 6.85449 26.6971H22.6045C23.2279 26.6971 23.7295 26.2084 23.7295 25.601V10.6202H17.3545C16.7357 10.6202 16.2295 10.1269 16.2295 9.52404ZM19.2848 19.3899H16.2295V23.0437C16.2295 23.4475 15.8939 23.7745 15.4795 23.7745H13.9795C13.5651 23.7745 13.2295 23.4475 13.2295 23.0437V19.3899H10.1742C9.5048 19.3899 9.17059 18.6002 9.6459 18.1403L14.1656 13.7694C14.4773 13.4675 14.9807 13.4675 15.2925 13.7694L19.8121 18.1403C20.2879 18.6002 19.9542 19.3899 19.2848 19.3899ZM23.4014 8.10817L18.8123 3.63221C18.6014 3.42668 18.3154 3.3125 18.0154 3.3125H17.7295V9.15865H23.7295V8.88005C23.7295 8.59231 23.6123 8.3137 23.4014 8.10817Z" fill="white"/>
</svg>
